<svg width="338" height="606" viewBox="0 0 338 606" fill="none" xmlns="http://www.w3.org/2000/svg">
<g clip-path="url(#clip0_30_523)">
<rect width="338" height="606" fill="#004BFF"/>
<path fill-rule="evenodd" clip-rule="evenodd" d="M208.489 662.019L206.72 660.565L204.967 659.103L203.228 657.633L201.505 656.157L199.795 654.675L198.099 653.188L196.416 651.697L194.746 650.201L193.088 648.702L191.442 647.2L189.808 645.694L188.185 644.184L186.573 642.671L184.973 641.154L183.384 639.633L181.807 638.107L180.241 636.576L178.687 635.039L177.146 633.496L175.618 631.945L174.105 630.384L172.608 628.813L171.128 627.23L169.667 625.632L168.227 624.019L166.81 622.387L165.419 620.737L164.055 619.065L162.721 617.371L161.42 615.653L160.153 613.909L158.923 612.139L157.732 610.341L156.583 608.516L155.477 606.662L154.417 604.78L153.403 602.869L152.439 600.931L151.524 598.964L150.662 596.969L149.854 594.947L149.101 592.898L148.404 590.824L147.765 588.724L147.184 586.6L146.664 584.454L146.203 582.286L145.804 580.097L145.466 577.89L145.19 575.666L144.976 573.426L144.823 571.173L144.733 568.907L144.703 566.632L144.735 564.348L144.827 562.058L144.978 559.763L145.187 557.466L145.453 555.169L145.775 552.873L146.152 550.581L146.581 548.295L147.06 546.017L147.588 543.748L148.162 541.491L148.78 539.248L149.439 537.02L150.137 534.809L150.871 532.618L151.637 530.447L152.433 528.298L153.255 526.173L154.101 524.073L154.966 522L155.847 519.954L156.74 517.936L157.642 515.948L158.549 513.99L159.458 512.063L160.364 510.168L161.264 508.303L162.154 506.471L163.03 504.67L163.889 502.901L164.728 501.164L165.542 499.457L166.328 497.781L167.084 496.134L167.806 494.516L168.49 492.926L169.135 491.362L169.737 489.824L170.295 488.309L170.806 486.817L171.268 485.346L171.679 483.894L172.039 482.459L172.345 481.04L172.596 479.634L172.793 478.24L172.934 476.855L173.02 475.478L173.051 474.107L173.027 472.739L172.948 471.373L172.816 470.006L172.632 468.636L172.397 467.263L172.114 465.883L171.783 464.495L171.407 463.098L170.989 461.69L170.53 460.269L170.034 458.834L169.504 457.384L168.941 455.917L168.35 454.433L167.734 452.93L167.095 451.409L166.438 449.868L165.766 448.307L165.082 446.726L164.39 445.124L163.693 443.501L162.994 441.858L162.298 440.194L161.606 438.51L160.923 436.806L160.25 435.083L159.593 433.341L158.953 431.582L158.332 429.805L157.735 428.012L157.162 426.203L156.617 424.381L156.102 422.544L155.617 420.696L155.165 418.835L154.748 416.965L154.367 415.086L154.024 413.198L153.719 411.304L153.453 409.404L153.229 407.5L153.048 405.593L152.908 403.683L152.813 401.774L152.761 399.864L152.755 397.957L152.793 396.052L152.876 394.152L153.006 392.257L153.18 390.368L153.401 388.487L153.666 386.614L153.977 384.751L154.333 382.899L154.734 381.058L155.178 379.229L155.666 377.414L156.197 375.612L156.771 373.825L157.385 372.053L158.041 370.297L158.736 368.558L159.469 366.835L160.241 365.129L161.049 363.441L161.892 361.77L162.77 360.117L163.68 358.482L164.622 356.864L165.595 355.264L166.597 353.681L167.626 352.115L168.682 350.565L169.763 349.032L170.868 347.514L171.994 346.012L173.142 344.523L174.31 343.049L175.495 341.587L176.698 340.137L177.917 338.698L179.15 337.269L180.398 335.849L181.657 334.438L182.928 333.033L184.21 331.634L185.502 330.241L186.802 328.851L188.111 327.465L189.428 326.08L190.752 324.696L192.083 323.312L193.42 321.928L194.764 320.542L196.114 319.153L197.47 317.762L198.832 316.367L200.201 314.968L201.576 313.565L202.958 312.157L204.348 310.744L205.745 309.327L207.151 307.904L208.565 306.478L209.989 305.047L211.424 303.612L212.869 302.175L214.326 300.735L215.796 299.293L217.279 297.85L218.776 296.407L220.287 294.964L221.814 293.524L223.357 292.087L224.916 290.653L226.493 289.225L228.088 287.804L229.702 286.391L231.335 284.987L232.987 283.595L234.66 282.216L236.354 280.851L238.069 279.503L239.805 278.172L241.564 276.862L243.344 275.573L245.146 274.308L246.971 273.069L248.817 271.856L250.686 270.673L252.577 269.521L254.49 268.401L256.424 267.316L258.379 266.267L260.356 265.257L262.352 264.286L264.368 263.357L266.404 262.472L268.457 261.631L270.529 260.837L272.617 260.091L274.721 259.394L276.84 258.749L278.973 258.155L281.119 257.615L283.277 257.129L285.446 256.699L287.624 256.326L289.81 256.01L292.003 255.752L294.202 255.553L296.405 255.414L298.611 255.335L300.819 255.317L303.027 255.36L305.233 255.465L307.437 255.631L309.636 255.859L311.83 256.149L314.017 256.501L316.195 256.914L318.364 257.389L320.52 257.925L322.665 258.522L324.794 259.178L326.909 259.894L329.006 260.669L331.085 261.501L333.145 262.391L335.183 263.336L337.2 264.335L339.194 265.389L341.164 266.494L343.108 267.65L345.027 268.856L346.918 270.11L348.781 271.41L350.615 272.755L352.42 274.143L354.195 275.573L355.938 277.043L357.651 278.551L359.331 280.095L360.979 281.674L362.595 283.286L364.177 284.929L365.726 286.602L367.241 288.302L368.723 290.028L370.171 291.778L371.585 293.55L372.965 295.343L374.312 297.156L375.625 298.986L376.904 300.832L378.15 302.692L379.363 304.565L380.543 306.45L381.69 308.345L382.805 310.249L383.888 312.16L384.939 314.077L385.96 315.999L386.949 317.925L387.908 319.853L388.837 321.783L389.736 323.714L390.606 325.644L391.448 327.573L392.262 329.499L393.048 331.423L393.807 333.342L394.539 335.257L395.245 337.167L395.926 339.071L396.581 340.968L397.212 342.858L397.819 344.74L398.403 346.614L398.963 348.479L399.5 350.335L400.015 352.183L400.507 354.022L400.976 355.853L401.422 357.676L401.845 359.491L402.244 361.298L402.62 363.098L402.972 364.892L403.299 366.679L403.602 368.459L403.881 370.233L404.135 372.001L404.364 373.761L404.57 375.515L404.751 377.26L404.91 378.997L405.047 380.725L405.162 382.442L405.257 384.149L405.332 385.844L405.389 387.527L405.428 389.197L405.451 390.853L405.459 392.494L405.454 394.12L405.436 395.73L405.407 397.324L405.368 398.9L405.322 400.458L405.27 401.997L405.213 403.517L405.154 405.017L405.093 406.496L405.034 407.955L404.977 409.393L404.924 410.81L404.878 412.204L404.84 413.577L404.812 414.929L404.796 416.258L404.794 417.565L404.808 418.85L404.839 420.114L404.89 421.356L404.963 422.577L405.059 423.778L405.179 424.958L405.327 426.119L405.503 427.261L405.709 428.385L405.947 429.491L406.218 430.58L406.525 431.654L406.867 432.713L407.246 433.759L407.665 434.792L408.123 435.814L408.622 436.826L409.163 437.83L409.746 438.826L410.372 439.817L411.042 440.803L411.756 441.787L412.515 442.769L413.318 443.752L414.165 444.737L415.057 445.725L415.993 446.719L416.973 447.72L417.996 448.729L419.062 449.749L420.169 450.781L421.318 451.826L422.505 452.887L423.732 453.964L424.995 455.059L426.294 456.174L427.628 457.311L428.994 458.47L430.39 459.653L431.816 460.861L433.269 462.096L434.747 463.358L436.247 464.649L437.769 465.97L439.31 467.321L440.866 468.704L442.438 470.119L444.021 471.568L445.613 473.049L447.213 474.565L448.818 476.116L450.426 477.701L452.033 479.322L453.639 480.978L455.24 482.669L456.834 484.397L458.418 486.159L459.991 487.957L461.55 489.791L463.091 491.659L464.615 493.562L466.117 495.499L467.596 497.469L469.05 499.473L470.476 501.509L471.872 503.577L473.236 505.675L474.566 507.803L475.859 509.96L477.113 512.145L478.326 514.355L479.493 516.591L480.614 518.85L481.684 521.131L482.701 523.432L483.661 525.75L484.562 528.083L485.4 530.43L486.172 532.788L486.876 535.153L487.509 537.525L488.069 539.899L488.554 542.275L488.961 544.648L489.289 547.016L489.537 549.376L489.702 551.726L489.784 554.063L489.782 556.384L489.696 558.686L489.524 560.967L489.266 563.225L488.923 565.456L488.496 567.658L487.984 569.83L487.388 571.968L486.71 574.072L485.95 576.138L485.112 578.166L484.195 580.153L483.202 582.099L482.136 584.002L480.999 585.861L479.792 587.675L478.52 589.444L477.184 591.166L475.789 592.843L474.335 594.474L472.828 596.058L471.271 597.597L469.665 599.091L468.016 600.54L466.326 601.946L464.599 603.309L462.838 604.631L461.047 605.914L459.228 607.158L457.386 608.366L455.523 609.54L453.643 610.681L451.748 611.792L449.842 612.874L447.927 613.931L446.007 614.964L444.083 615.976L442.159 616.969L440.236 617.947L438.316 618.91L436.402 619.863L434.495 620.808L432.596 621.746L430.708 622.681L428.832 623.615L426.967 624.55L425.116 625.488L423.279 626.432L421.457 627.385L419.649 628.347L417.856 629.32L416.078 630.307L414.314 631.31L412.565 632.328L410.83 633.364L409.109 634.42L407.399 635.494L405.701 636.59L404.014 637.706L402.336 638.844L400.666 640.003L399.003 641.183L397.345 642.384L395.691 643.606L394.039 644.847L392.387 646.106L390.735 647.382L389.079 648.674L387.419 649.979L385.752 651.295L384.077 652.621L382.393 653.955L380.697 655.293L378.99 656.634L377.268 657.976L375.532 659.318L373.78 660.655L372.012 661.988L370.227 663.314L368.423 664.631L366.601 665.938L364.76 667.232L362.9 668.512L361.02 669.777L359.12 671.025L357.2 672.255L355.26 673.465L353.299 674.655L351.319 675.823L349.319 676.969L347.3 678.092L345.26 679.19L343.202 680.263L341.124 681.31L339.028 682.329L336.913 683.318L334.78 684.278L332.629 685.206L330.461 686.101L328.275 686.962L326.074 687.786L323.856 688.574L321.623 689.322L319.375 690.03L317.113 690.697L314.838 691.32L312.551 691.899L310.252 692.432L307.942 692.918L305.623 693.356L303.295 693.744L300.96 694.081L298.619 694.367L296.272 694.601L293.92 694.781L291.566 694.908L289.211 694.979L286.854 694.995L284.499 694.956L282.145 694.861L279.795 694.709L277.449 694.502L275.109 694.238L272.777 693.918L270.452 693.542L268.137 693.111L265.832 692.625L263.539 692.085L261.259 691.491L258.993 690.845L256.742 690.148L254.507 689.4L252.288 688.603L250.087 687.758L247.903 686.867L245.739 685.931L243.594 684.952L241.469 683.931L239.365 682.87L237.281 681.771L235.218 680.636L233.176 679.467L231.155 678.266L229.156 677.034L227.177 675.774L225.22 674.487L223.283 673.176L221.367 671.842L219.471 670.487L217.594 669.114L215.737 667.723L213.898 666.316L212.078 664.896L210.275 663.463L208.489 662.019Z" fill="url(#paint0_linear_30_523)"/>
<path fill-rule="evenodd" clip-rule="evenodd" d="M262.193 117.776L261.686 120.009L261.165 122.232L260.63 124.445L260.083 126.647L259.524 128.84L258.955 131.022L258.376 133.195L257.788 135.358L257.191 137.512L256.585 139.657L255.971 141.793L255.349 143.921L254.719 146.039L254.08 148.15L253.432 150.252L252.775 152.346L252.108 154.432L251.431 156.509L250.742 158.579L250.04 160.64L249.323 162.692L248.59 164.734L247.837 166.767L247.064 168.789L246.267 170.799L245.444 172.797L244.592 174.78L243.709 176.749L242.792 178.701L241.839 180.634L240.848 182.548L239.817 184.441L238.744 186.311L237.627 188.156L236.465 189.976L235.258 191.767L234.004 193.529L232.704 195.261L231.355 196.96L229.958 198.624L228.513 200.253L227.019 201.845L225.477 203.397L223.886 204.91L222.248 206.38L220.562 207.808L218.83 209.191L217.053 210.529L215.231 211.82L213.367 213.063L211.461 214.259L209.515 215.405L207.53 216.501L205.509 217.547L203.453 218.543L201.365 219.487L199.246 220.381L197.098 221.223L194.925 222.014L192.729 222.755L190.511 223.446L188.275 224.087L186.024 224.68L183.759 225.225L181.484 225.723L179.202 226.176L176.915 226.585L174.626 226.952L172.338 227.278L170.054 227.566L167.776 227.818L165.508 228.035L163.252 228.22L161.011 228.376L158.787 228.506L156.583 228.611L154.402 228.696L152.245 228.762L150.115 228.814L148.014 228.853L145.944 228.884L143.907 228.91L141.905 228.934L139.938 228.958L138.009 228.988L136.119 229.025L134.268 229.073L132.457 229.136L130.687 229.216L128.959 229.316L127.272 229.441L125.627 229.591L124.023 229.772L122.46 229.984L120.938 230.23L119.456 230.513L118.012 230.835L116.606 231.197L115.237 231.602L113.902 232.051L112.601 232.546L111.332 233.086L110.092 233.673L108.88 234.308L107.694 234.991L106.531 235.721L105.389 236.5L104.267 237.325L103.16 238.197L102.068 239.115L100.987 240.077L99.9158 241.082L98.851 242.128L97.7905 243.215L96.7319 244.339L95.6728 245.499L94.6111 246.693L93.5444 247.917L92.4705 249.17L91.3874 250.448L90.2932 251.748L89.186 253.068L88.064 254.405L86.9258 255.756L85.7698 257.116L84.5947 258.485L83.3992 259.858L82.1824 261.233L80.9433 262.606L79.6811 263.974L78.3951 265.335L77.0847 266.686L75.7496 268.024L74.3895 269.346L73.0043 270.65L71.5938 271.934L70.1583 273.196L68.698 274.433L67.2129 275.644L65.7035 276.827L64.1703 277.98L62.6136 279.102L61.034 280.19L59.4321 281.244L57.8087 282.262L56.1644 283.242L54.4999 284.183L52.8162 285.085L51.114 285.945L49.3944 286.765L47.6581 287.542L45.9061 288.276L44.1395 288.966L42.3591 289.612L40.566 290.214L38.7612 290.771L36.9457 291.283L35.1204 291.75L33.2864 292.172L31.4446 292.55L29.5961 292.882L27.7417 293.171L25.8823 293.415L24.0189 293.616L22.1524 293.774L20.2834 293.891L18.4129 293.966L16.5415 294L14.6699 293.995L12.7988 293.951L10.9288 293.87L9.06027 293.753L7.1938 293.601L5.32973 293.415L3.46843 293.196L1.61015 292.947L-0.244919 292.668L-2.09662 292.36L-3.9449 292.027L-5.78976 291.668L-7.6313 291.285L-9.46962 290.88L-11.3049 290.455L-13.1375 290.01L-14.9676 289.548L-16.7957 289.069L-18.6222 288.576L-20.4475 288.069L-22.2722 287.55L-24.0969 287.02L-25.922 286.48L-27.7483 285.931L-29.5763 285.375L-31.4067 284.811L-33.2401 284.242L-35.0771 283.667L-36.9184 283.087L-38.7646 282.502L-40.6162 281.914L-42.4737 281.321L-44.3377 280.725L-46.2085 280.124L-48.0866 279.519L-49.9722 278.91L-51.8656 278.297L-53.7669 277.677L-55.6762 277.052L-57.5935 276.42L-59.5188 275.781L-61.4518 275.133L-63.3923 274.476L-65.3399 273.808L-67.2944 273.129L-69.2552 272.438L-71.2218 271.733L-73.1937 271.014L-75.1702 270.279L-77.1505 269.527L-79.1338 268.758L-81.1192 267.969L-83.1057 267.16L-85.0921 266.329L-87.0774 265.475L-89.0603 264.598L-91.0393 263.696L-93.0133 262.767L-94.9807 261.811L-96.9401 260.826L-98.8899 259.813L-100.829 258.768L-102.754 257.693L-104.666 256.585L-106.561 255.445L-108.439 254.271L-110.297 253.063L-112.134 251.82L-113.947 250.542L-115.737 249.228L-117.499 247.879L-119.233 246.493L-120.937 245.07L-122.609 243.611L-124.247 242.115L-125.85 240.583L-127.416 239.014L-128.943 237.409L-130.429 235.768L-131.874 234.091L-133.275 232.38L-134.631 230.634L-135.941 228.854L-137.204 227.042L-138.417 225.197L-139.58 223.32L-140.692 221.413L-141.751 219.476L-142.757 217.511L-143.708 215.518L-144.603 213.499L-145.442 211.454L-146.224 209.386L-146.948 207.295L-147.614 205.182L-148.22 203.049L-148.767 200.898L-149.255 198.73L-149.682 196.546L-150.05 194.348L-150.358 192.137L-150.605 189.915L-150.793 187.683L-150.921 185.443L-150.99 183.197L-151 180.946L-150.952 178.692L-150.847 176.436L-150.684 174.179L-150.466 171.924L-150.193 169.672L-149.866 167.423L-149.485 165.181L-149.053 162.945L-148.57 160.718L-148.038 158.5L-147.457 156.294L-146.83 154.099L-146.157 151.918L-145.44 149.752L-144.68 147.601L-143.879 145.467L-143.039 143.35L-142.16 141.252L-141.245 139.173L-140.294 137.115L-139.309 135.077L-138.293 133.061L-137.245 131.067L-136.168 129.096L-135.064 127.149L-133.933 125.225L-132.777 123.326L-131.597 121.451L-130.395 119.601L-129.172 117.776L-127.929 115.977L-126.668 114.204L-125.39 112.456L-124.096 110.735L-122.786 109.04L-121.464 107.37L-120.128 105.727L-118.781 104.11L-117.424 102.52L-116.057 100.955L-114.681 99.4162L-113.297 97.9033L-111.906 96.4161L-110.51 94.9545L-109.108 93.5183L-107.701 92.1072L-106.29 90.7211L-104.877 89.3598L-103.46 88.023L-102.042 86.7106L-100.621 85.4225L-99.1969 84.1585L-97.7705 82.9187L-96.3411 81.703L-94.9082 80.5115L-93.4714 79.3443L-92.0304 78.2015L-90.5847 77.0832L-89.134 75.9895L-87.6782 74.9207L-86.2171 73.8767L-84.751 72.8576L-83.2799 71.8635L-81.8046 70.8941L-80.3256 69.9495L-78.8441 69.0291L-77.361 68.1327L-75.8774 67.2599L-74.3942 66.4102L-72.9127 65.5831L-71.4338 64.7781L-69.9587 63.9946L-68.4886 63.2318L-67.0247 62.489L-65.5684 61.7653L-64.1209 61.0598L-62.6835 60.3715L-61.2574 59.6995L-59.8441 59.0425L-58.4448 58.3994L-57.0608 57.7689L-55.6932 57.1498L-54.3433 56.5407L-53.0124 55.9402L-51.7015 55.3467L-50.4117 54.7589L-49.1441 54.1751L-47.8997 53.5938L-46.6794 53.0132L-45.4841 52.4318L-44.3147 51.8477L-43.1718 51.2594L-42.0563 50.6649L-40.9686 50.0625L-39.9093 49.4504L-38.879 48.8268L-37.8778 48.1898L-36.9063 47.5377L-35.9644 46.8685L-35.0524 46.1806L-34.1703 45.4722L-33.3179 44.7413L-32.4951 43.9864L-31.7016 43.2058L-30.9371 42.3977L-30.2009 41.5606L-29.4926 40.693L-28.8115 39.7933L-28.1567 38.8602L-27.5274 37.8924L-26.9226 36.8885L-26.3411 35.8475L-25.7819 34.7684L-25.2436 33.65L-24.7249 32.4917L-24.2244 31.2927L-23.7404 30.0522L-23.2715 28.77L-22.816 27.4454L-22.3721 26.0784L-21.9381 24.6688L-21.512 23.2165L-21.0922 21.7217L-20.6765 20.1846L-20.2632 18.6056L-19.8501 16.9852L-19.4355 15.3239L-19.0171 13.6226L-18.5932 11.8821L-18.1616 10.1033L-17.7205 8.28728L-17.2678 6.43522L-16.8016 4.54839L-16.3201 2.62813L-15.8214 0.675903L-15.3037 -1.30679L-14.7653 -3.31834L-14.2043 -5.35706L-13.6192 -7.42125L-13.0085 -9.5091L-12.3704 -11.6188L-11.7037 -13.7484L-11.0069 -15.8959L-10.2787 -18.0594L-9.51781 -20.2369L-8.72308 -22.4262L-7.8934 -24.6252L-7.02773 -26.8317L-6.12508 -29.0435L-5.1846 -31.2583L-4.20551 -33.4741L-3.18713 -35.6885L-2.12885 -37.8995L-1.03014 -40.1048L0.109482 -42.3023L1.29036 -44.4896L2.51285 -46.6645L3.77719 -48.8245L5.08362 -50.9672L6.43224 -53.0899L7.82312 -55.1899L9.25627 -57.2644L10.7316 -59.3103L12.249 -61.3244L13.8083 -63.3033L15.4091 -65.2433L17.051 -67.1407L18.7334 -68.9916L20.4558 -70.7924L22.2171 -72.5393L24.0165 -74.2289L25.8527 -75.8577L27.7245 -77.4226L29.6306 -78.9204L31.5694 -80.348L33.5392 -81.7027L35.5383 -82.9819L37.5649 -84.1829L39.6171 -85.3037L41.6927 -86.3421L43.7898 -87.2963L45.9061 -88.1649L48.0395 -88.9465L50.1876 -89.64L52.3482 -90.2447L54.519 -90.7601L56.6976 -91.1861L58.8819 -91.5225L61.0694 -91.7699L63.258 -91.9288L65.4455 -92L67.6297 -91.9848L69.8086 -91.8844L71.9802 -91.7007L74.1425 -91.4353L76.2939 -91.0906L78.4327 -90.6688L80.5572 -90.1724L82.666 -89.6042L84.7579 -88.9671L86.8317 -88.2642L88.8864 -87.4987L90.9211 -86.6738L92.9352 -85.7931L94.928 -84.8602L96.8993 -83.8785L98.8487 -82.8519L100.776 -81.7839L102.682 -80.6784L104.566 -79.539L106.428 -78.3696L108.27 -77.1736L110.092 -75.9549L111.895 -74.7169L113.679 -73.4632L115.446 -72.1971L117.197 -70.9218L118.932 -69.6407L120.654 -68.3565L122.364 -67.0723L124.063 -65.7908L125.752 -64.5144L127.434 -63.2455L129.11 -61.9863L130.781 -60.7388L132.45 -59.5047L134.117 -58.2857L135.786 -57.0831L137.456 -55.8981L139.13 -54.7317L140.809 -53.5847L142.495 -52.4575L144.19 -51.3505L145.894 -50.2638L147.608 -49.1974L149.335 -48.151L151.076 -47.1241L152.83 -46.116L154.599 -45.1258L156.383 -44.1525L158.184 -43.1947L160.001 -42.2511L161.834 -41.3198L163.684 -40.3993L165.549 -39.4873L167.431 -38.5817L169.328 -37.6804L171.238 -36.781L173.162 -35.8811L175.098 -34.9783L177.045 -34.0701L179.001 -33.1543L180.966 -32.2287L182.937 -31.2914L184.914 -30.3405L186.895 -29.3742L188.879 -28.3908L190.864 -27.3889L192.85 -26.3669L194.835 -25.3237L196.817 -24.2579L198.795 -23.1686L200.768 -22.0548L202.735 -20.9156L204.695 -19.7503L206.647 -18.5584L208.589 -17.3394L210.521 -16.0928L212.442 -14.8186L214.35 -13.5163L216.246 -12.1856L218.128 -10.8264L219.994 -9.43818L221.845 -8.02074L223.677 -6.57378L225.491 -5.09698L227.285 -3.59005L229.057 -2.05274L230.805 -0.484787L232.529 1.11399L234.227 2.74376L235.897 4.40465L237.538 6.09671L239.147 7.81995L240.724 9.5743L242.267 11.3597L243.773 13.1758L245.243 15.0226L246.673 16.8996L248.064 18.8064L249.412 20.7427L250.717 22.7078L251.978 24.7012L253.193 26.7221L254.361 28.77L255.48 30.8439L256.551 32.9429L257.572 35.0663L258.541 37.2129L259.459 39.3818L260.325 41.5718L261.137 43.7818L261.897 46.0107L262.603 48.2572L263.255 50.52L263.854 52.7979L264.398 55.0896L264.889 57.3938L265.328 59.7091L265.713 62.0342L266.046 64.3677L266.328 66.7084L266.56 69.0549L266.741 71.4059L266.874 73.7602L266.96 76.1165L267 78.4736L266.995 80.8304L266.947 83.1857L266.857 85.5386L266.727 87.8879L266.559 90.2327L266.354 92.5723L266.114 94.9057L265.841 97.2322L265.536 99.5512L265.203 101.862L264.842 104.164L264.454 106.457L264.043 108.741L263.61 111.015L263.156 113.279L262.683 115.533L262.193 117.776Z" fill="url(#paint1_linear_30_523)"/>
</g>
<defs>
<linearGradient id="paint0_linear_30_523" x1="304.247" y1="649.101" x2="55.5179" y2="618.35" gradientUnits="userSpaceOnUse">
<stop stop-color="#2865F8"/>
<stop offset="1" stop-color="#004BFF"/>
</linearGradient>
<linearGradient id="paint1_linear_30_523" x1="207.729" y1="37.9634" x2="291.712" y2="274.096" gradientUnits="userSpaceOnUse">
<stop stop-color="#2865F8"/>
<stop offset="1" stop-color="#004BFF"/>
</linearGradient>
<clipPath id="clip0_30_523">
<rect width="338" height="606" fill="white"/>
</clipPath>
</defs>
</svg>
